<svg id="visual" viewBox="0 0 3440 1440" width="3440" height="1440" xmlns="http://www.w3.org/2000/svg" xmlns:xlink="http://www.w3.org/1999/xlink" version="1.1"><g stroke-width="1" stroke-linejoin="bevel"><path d="M1743 543L1162.7 879L1676 1031Z" fill="#009929" stroke="#009929"></path><path d="M1743 543L1157.7 517L1162.7 879Z" fill="#008a26" stroke="#008a26"></path><path d="M1116.7 1440L1647 1440L1676 1031Z" fill="#007b21" stroke="#007b21"></path><path d="M2278.3 993L2228.3 429L1743 543Z" fill="#00a32c" stroke="#00a32c"></path><path d="M609.3 1039L1116.7 1440L1162.7 879Z" fill="#007b21" stroke="#007b21"></path><path d="M1162.7 879L1116.7 1440L1676 1031Z" fill="#008524" stroke="#008524"></path><path d="M1743 543L1728 0L1157.7 517Z" fill="#00a32c" stroke="#00a32c"></path><path d="M2278.3 993L1743 543L1676 1031Z" fill="#00a82d" stroke="#00a82d"></path><path d="M1743 543L2228.3 429L1728 0Z" fill="#00a32c" stroke="#00a32c"></path><path d="M2328.3 1440L2278.3 993L1676 1031Z" fill="#008f27" stroke="#008f27"></path><path d="M1728 0L1119.7 0L1157.7 517Z" fill="#009e2b" stroke="#009e2b"></path><path d="M586.3 444L609.3 1039L1162.7 879Z" fill="#007b21" stroke="#007b21"></path><path d="M586.3 444L1162.7 879L1157.7 517Z" fill="#008023" stroke="#008023"></path><path d="M1119.7 0L586.3 444L1157.7 517Z" fill="#008524" stroke="#008524"></path><path d="M1647 1440L2328.3 1440L1676 1031Z" fill="#009428" stroke="#009428"></path><path d="M2851.7 449L2357.3 0L2228.3 429Z" fill="#008f27" stroke="#008f27"></path><path d="M0 1440L621.3 1440L609.3 1039Z" fill="#008524" stroke="#008524"></path><path d="M609.3 1039L621.3 1440L1116.7 1440Z" fill="#009e2b" stroke="#009e2b"></path><path d="M2828.7 895L2228.3 429L2278.3 993Z" fill="#008524" stroke="#008524"></path><path d="M2228.3 429L2357.3 0L1728 0Z" fill="#007b21" stroke="#007b21"></path><path d="M1119.7 0L561.3 0L586.3 444Z" fill="#008524" stroke="#008524"></path><path d="M586.3 444L0 926L609.3 1039Z" fill="#008023" stroke="#008023"></path><path d="M2840.7 1440L2828.7 895L2278.3 993Z" fill="#008524" stroke="#008524"></path><path d="M2828.7 895L2851.7 449L2228.3 429Z" fill="#009428" stroke="#009428"></path><path d="M0 427L0 926L586.3 444Z" fill="#009e2b" stroke="#009e2b"></path><path d="M561.3 0L0 427L586.3 444Z" fill="#00a82d" stroke="#00a82d"></path><path d="M2328.3 1440L2840.7 1440L2278.3 993Z" fill="#008524" stroke="#008524"></path><path d="M3440 0L2924.7 0L2851.7 449Z" fill="#008a26" stroke="#008a26"></path><path d="M0 926L0 1440L609.3 1039Z" fill="#007b21" stroke="#007b21"></path><path d="M3440 557L2851.7 449L2828.7 895Z" fill="#007620" stroke="#007620"></path><path d="M2851.7 449L2924.7 0L2357.3 0Z" fill="#008524" stroke="#008524"></path><path d="M561.3 0L0 0L0 427Z" fill="#009428" stroke="#009428"></path><path d="M2840.7 1440L3440 935L2828.7 895Z" fill="#00a82d" stroke="#00a82d"></path><path d="M3440 935L3440 557L2828.7 895Z" fill="#008f27" stroke="#008f27"></path><path d="M2840.7 1440L3440 1440L3440 935Z" fill="#007b21" stroke="#007b21"></path><path d="M3440 557L3440 0L2851.7 449Z" fill="#007620" stroke="#007620"></path></g></svg>